<svg xmlns="http://www.w3.org/2000/svg" width="16" height="16" fill="none" viewBox="0 0 16 16"><rect width="2" height="2" x="1" y="7" fill="#000" rx="1"/><rect width="2" height="2" x="13" y="7" fill="#000" rx="1"/><rect width="2" height="2" x="7" y="1" fill="#000" rx="1"/><g opacity=".5"><path fill="#000" d="M7 6C7 5.44772 7.44772 5 8 5C8.55228 5 9 5.44772 9 6V10C9 10.5523 8.55228 11 8 11C7.44772 11 7 10.5523 7 10V6Z"/><path fill="#000" d="M5 8C5 7.44772 5.44772 7 6 7H10C10.5523 7 11 7.44772 11 8C11 8.55228 10.5523 9 10 9H6C5.44772 9 5 8.55228 5 8Z"/></g><rect width="2" height="2" x="7" y="13" fill="#000" rx="1"/></svg>